<svg viewBox="0 0 2000 2000"
  xmlns="http://www.w3.org/2000/svg">
  <rect width="2000" height="2000" fill="#fff"/>
  <g fill="#38a8e0">
    <path d="m247.44 0h329.91l164.96 285.71h-329.91z"/>
    <path d="m1237.18 0h329.91l164.96 285.71h-329.91z"/>
    <path d="m0 285.71h82.48l164.96 285.71h-247.44z"/>
    <path d="m247.44 571.43h329.91l164.96 285.71h-329.91z"/>
    <path d="m742.31 285.71h329.91l164.96 285.71h-329.91z"/>
    <path d="m1237.18 571.43h329.91l164.96 285.71h-329.91z"/>
    <path d="m1732.05 285.71h267.95v285.71h-102.99z"/>
    <path d="m0 857.14h82.48l164.96 285.71h-247.44z"/>
    <path d="m247.44 1142.86h329.91l164.96 285.71h-329.91z"/>
    <path d="m742.31 857.14h329.91l164.96 285.71h-329.91z"/>
    <path d="m1237.18 1142.86h329.91l164.96 285.71h-329.91z"/>
    <path d="m1732.05 857.14h267.95v285.71h-102.99z"/>
    <path d="m0 1428.57h82.48l164.96 285.71h-247.44z"/>
    <path d="m247.44 1714.29h329.91l164.96 285.71h-329.91z"/>
    <path d="m742.31 1428.57h329.91l164.96 285.71h-329.91z"/>
    <path d="m1237.18 1714.29h329.91l164.96 285.71h-329.91z"/>
    <path d="m1732.05 1428.57h267.95v285.71h-102.99z"/>
  </g>
  <g fill="#683b11">
    <path d="m0 0h247.44l-164.96 285.71h-82.48z"/>
    <path d="m412.39 285.71h329.91l-164.96 285.71h-329.91z"/>
    <path d="m907.26 0h329.91l-164.96 285.71h-329.91z"/>
    <path d="m1402.14 285.71h329.91l-164.96 285.71h-329.91z"/>
    <path d="m1897.01 0h102.99v285.71h-267.95z"/>
    <path d="m0 571.43h247.44l-164.96 285.71h-82.48z"/>
    <path d="m412.39 857.14h329.91l-164.96 285.71h-329.91z"/>
    <path d="m907.26 571.43h329.91l-164.96 285.71h-329.91z"/>
    <path d="m1402.14 857.14h329.91l-164.96 285.71h-329.91z"/>
    <path d="m1897.01 571.43h102.99v285.71h-267.95z"/>
    <path d="m0 1142.86h247.44l-164.96 285.71h-82.48z"/>
    <path d="m412.39 1428.57h329.91l-164.96 285.71h-329.91z"/>
    <path d="m907.26 1142.86h329.91l-164.96 285.71h-329.91z"/>
    <path d="m1402.14 1428.57h329.91l-164.96 285.71h-329.91z"/>
    <path d="m1897.01 1142.86h102.99v285.71h-267.95z"/>
    <path d="m0 1714.29h247.44l-164.96 285.71h-82.48z"/>
    <path d="m907.26 1714.29h329.91l-164.96 285.71h-329.91z"/>
    <path d="m1897.01 1714.29h102.99v285.71h-267.95z"/>
  </g>
</svg>