<svg xmlns="http://www.w3.org/2000/svg" viewBox="0 0 2000 2000">
  <defs>
    <mask id="canvasMask">
      <rect width="2000" height="2000" fill="white" />
    </mask>
    <g id="splitHexagon">
      <polygon points="-164.9572197684645,-285.7142857142857 164.9572197684645,-285.7142857142857 329.914439536929,0 0,0" fill="#38a8e0" />
      <polygon points="0,0 329.914439536929,0 164.9572197684645,285.7142857142857 -164.9572197684645,285.7142857142857" fill="#683b11" />
    </g>
  </defs>
  
  <!-- White background -->
  <rect width="2000" height="2000" fill="white" />
  
  <!-- Masked hexagon pattern -->
  <g mask="url(#canvasMask)">
    <g transform="translate(-82.47860988423226, 0)">
      <use href="#splitHexagon" />
    </g>
    <g transform="translate(412.3930494211613, 285.7142857142857)">
      <use href="#splitHexagon" />
    </g>
    <g transform="translate(907.2647087265549, 0)">
      <use href="#splitHexagon" />
    </g>
    <g transform="translate(1402.1363680319482, 285.7142857142857)">
      <use href="#splitHexagon" />
    </g>
    <g transform="translate(1897.008027337342, 0)">
      <use href="#splitHexagon" />
    </g>
    <g transform="translate(2391.8796866427356, 285.7142857142857)">
      <use href="#splitHexagon" />
    </g>
    <g transform="translate(-82.47860988423226, 571.4285714285714)">
      <use href="#splitHexagon" />
    </g>
    <g transform="translate(412.3930494211613, 857.1428571428571)">
      <use href="#splitHexagon" />
    </g>
    <g transform="translate(907.2647087265549, 571.4285714285714)">
      <use href="#splitHexagon" />
    </g>
    <g transform="translate(1402.1363680319482, 857.1428571428571)">
      <use href="#splitHexagon" />
    </g>
    <g transform="translate(1897.008027337342, 571.4285714285714)">
      <use href="#splitHexagon" />
    </g>
    <g transform="translate(2391.8796866427356, 857.1428571428571)">
      <use href="#splitHexagon" />
    </g>
    <g transform="translate(-82.47860988423226, 1142.857142857143)">
      <use href="#splitHexagon" />
    </g>
    <g transform="translate(412.3930494211613, 1428.5714285714287)">
      <use href="#splitHexagon" />
    </g>
    <g transform="translate(907.2647087265549, 1142.857142857143)">
      <use href="#splitHexagon" />
    </g>
    <g transform="translate(1402.1363680319482, 1428.5714285714287)">
      <use href="#splitHexagon" />
    </g>
    <g transform="translate(1897.008027337342, 1142.857142857143)">
      <use href="#splitHexagon" />
    </g>
    <g transform="translate(2391.8796866427356, 1428.5714285714287)">
      <use href="#splitHexagon" />
    </g>
    <g transform="translate(-82.47860988423226, 1714.2857142857142)">
      <use href="#splitHexagon" />
    </g>
    <g transform="translate(412.3930494211613, 2000)">
      <use href="#splitHexagon" />
    </g>
    <g transform="translate(907.2647087265549, 1714.2857142857142)">
      <use href="#splitHexagon" />
    </g>
    <g transform="translate(1402.1363680319482, 2000)">
      <use href="#splitHexagon" />
    </g>
    <g transform="translate(1897.008027337342, 1714.2857142857142)">
      <use href="#splitHexagon" />
    </g>
    <g transform="translate(2391.8796866427356, 2000)">
      <use href="#splitHexagon" />
    </g>
    <g transform="translate(-82.47860988423226, 2285.714285714286)">
      <use href="#splitHexagon" />
    </g>
    <g transform="translate(412.3930494211613, 2571.4285714285716)">
      <use href="#splitHexagon" />
    </g>
    <g transform="translate(907.2647087265549, 2285.714285714286)">
      <use href="#splitHexagon" />
    </g>
    <g transform="translate(1402.1363680319482, 2571.4285714285716)">
      <use href="#splitHexagon" />
    </g>
    <g transform="translate(1897.008027337342, 2285.714285714286)">
      <use href="#splitHexagon" />
    </g>
    <g transform="translate(2391.8796866427356, 2571.4285714285716)">
      <use href="#splitHexagon" />
    </g>
  </g>
</svg>